<?xml version="1.0" encoding="UTF-8" standalone="no"?>
<!-- Created with Inkscape (http://www.inkscape.org/) -->

<svg
   xmlns:dc="http://purl.org/dc/elements/1.1/"
   xmlns:cc="http://creativecommons.org/ns#"
   xmlns:rdf="http://www.w3.org/1999/02/22-rdf-syntax-ns#"
   xmlns:svg="http://www.w3.org/2000/svg"
   xmlns="http://www.w3.org/2000/svg"
   xmlns:sodipodi="http://sodipodi.sourceforge.net/DTD/sodipodi-0.dtd"
   xmlns:inkscape="http://www.inkscape.org/namespaces/inkscape"
   width="104"
   height="85"
   id="svg2"
   sodipodi:version="0.32"
   inkscape:version="0.48.3.1 r9886"
   version="1.0"
   sodipodi:docname="logo.simple.svg"
   inkscape:output_extension="org.inkscape.output.svg.inkscape">
  <defs
     id="defs4">
    <inkscape:perspective
       sodipodi:type="inkscape:persp3d"
       inkscape:vp_x="0 : 495 : 1"
       inkscape:vp_y="0 : 1000 : 0"
       inkscape:vp_z="765 : 495 : 1"
       inkscape:persp3d-origin="382.5 : 330 : 1"
       id="perspective11" />
    <inkscape:perspective
       id="perspective2456"
       inkscape:persp3d-origin="100 : 66.666667 : 1"
       inkscape:vp_z="200 : 100 : 1"
       inkscape:vp_y="0 : 1000 : 0"
       inkscape:vp_x="0 : 100 : 1"
       sodipodi:type="inkscape:persp3d" />
    <inkscape:perspective
       id="perspective2514"
       inkscape:persp3d-origin="372.04724 : 350.78739 : 1"
       inkscape:vp_z="744.09448 : 526.18109 : 1"
       inkscape:vp_y="0 : 1000 : 0"
       inkscape:vp_x="0 : 526.18109 : 1"
       sodipodi:type="inkscape:persp3d" />
  </defs>
  <sodipodi:namedview
     inkscape:document-units="in"
     pagecolor="#ffffff"
     bordercolor="#666666"
     borderopacity="1.0"
     inkscape:pageopacity="0.0"
     inkscape:pageshadow="2"
     inkscape:zoom="2.6997085"
     inkscape:cx="74.822896"
     inkscape:cy="36.943845"
     inkscape:current-layer="layer1"
     id="namedview6"
     showgrid="false"
     inkscape:window-width="1438"
     inkscape:window-height="659"
     inkscape:window-x="0"
     inkscape:window-y="239"
     inkscape:window-maximized="0" />
  <metadata
     id="metadata8">
    <rdf:RDF>
      <cc:Work
         rdf:about="">
        <dc:format>image/svg+xml</dc:format>
        <dc:type
           rdf:resource="http://purl.org/dc/dcmitype/StillImage" />
      </cc:Work>
    </rdf:RDF>
  </metadata>
  <g
     inkscape:label="Layer 1"
     inkscape:groupmode="layer"
     id="layer1"
     transform="translate(-50.000004,-73.33332)">
    <path
       sodipodi:type="arc"
       style="fill:#ffffff;fill-opacity:1;stroke:#ffffff;stroke-width:0.89999998;stroke-linejoin:round;stroke-miterlimit:4;stroke-opacity:1;stroke-dasharray:none;stroke-dashoffset:0"
       id="path2823"
       sodipodi:cx="57.969223"
       sodipodi:cy="66.664688"
       sodipodi:rx="54.265118"
       sodipodi:ry="54.265118"
       d="m 112.23434,66.664688 a 54.265118,54.265118 0 1 1 -108.5302346,0 54.265118,54.265118 0 1 1 108.5302346,0 z"
       transform="matrix(0.7245112,0,0,0.7245112,68.739562,69.30453)" />
    <path
       sodipodi:type="arc"
       style="fill:#f69143;fill-opacity:1;stroke:none"
       id="path2468"
       sodipodi:cx="81.225822"
       sodipodi:cy="92.488266"
       sodipodi:rx="28.865374"
       sodipodi:ry="28.865374"
       d="m 110.0912,92.488266 a 28.865374,28.865374 0 1 1 -57.730751,0 28.865374,28.865374 0 1 1 57.730751,0 z"
       transform="matrix(0.34345738,0,0,0.34345738,56.034301,56.86191)" />
    <path
       id="path1308"
       d="m 120.6444,156.75485 c 14.56919,-3.87431 25.35029,-13.88254 29.8297,-27.69125 2.15572,-6.64544 2.14682,-16.35608 -0.0208,-22.68824 -4.8563,-14.186386 -14.81452,-23.478158 -29.14815,-27.197425 -3.00004,-0.778439 -6.5752,-2.004244 -7.94479,-2.723989 -2.51995,-1.324293 -5.15828,-1.620069 -7.93636,-0.889752 l -1.52367,0.400559 1.52367,1.246971 c 1.88745,1.544689 1.04941,1.677967 -1.25202,0.199114 -1.62709,-1.04553 -1.77196,-1.016634 -3.36738,0.671618 -0.916919,0.970285 -2.151811,1.764147 -2.744183,1.764147 -0.592381,0 -3.203496,1.050187 -5.802476,2.333746 -3.115793,1.53879 -4.816968,2.064432 -4.994158,1.543122 -0.372055,-1.094614 -6.682271,4.174914 -6.682271,5.58021 0,0.612309 -1.192425,2.588342 -2.649837,4.391177 -5.785204,7.156412 -8.239387,14.453312 -8.343565,24.807572 -0.07765,7.71708 1.165485,12.45679 5.057091,19.28133 4.88928,8.57407 15.614254,16.36152 26.111619,18.95978 4.99646,1.23671 15.25757,1.24255 19.88755,0.0113 z m -18.35535,-2.10806 c -17.503707,-3.87849 -30.610353,-19.30272 -30.610353,-36.023 0,-7.90629 3.428916,-18.02501 7.85693,-23.185817 1.758686,-2.049747 1.797276,-2.059276 3.803916,-0.939594 2.219227,1.238321 2.710178,2.810187 0.877704,2.810187 -1.015475,0 -0.99438,0.130864 0.171208,1.062247 1.311152,1.047703 1.310615,1.056874 -0.04031,0.669971 -1.36966,-0.392291 -1.36966,-0.392291 0,0.589407 2.498635,1.790859 7.190768,7.933549 7.190768,9.413809 0,2.51142 6.983871,3.68248 12.5306,2.10114 4.4392,-1.26561 4.97438,-1.83672 4.03561,-4.30662 -0.37765,-0.99351 -0.91695,-2.41085 -1.19848,-3.14962 -0.28152,-0.73878 -0.43942,-1.90516 -0.35088,-2.59196 0.0967,-0.74995 -0.13483,-1.06946 -0.57958,-0.79988 -0.40731,0.24686 -0.74057,0.99847 -0.74057,1.67022 0,2.08162 -1.78559,2.94777 -5.14581,2.49609 -2.471646,-0.33223 -3.072215,-0.21432 -3.072215,0.60325 0,0.55892 0.693402,1.28954 1.540885,1.62361 1.042742,0.41104 1.180542,0.62117 0.426271,0.64997 -1.245498,0.0476 -2.685465,-1.38612 -2.911907,-2.89925 -0.0818,-0.54655 -1.562505,-2.38023 -3.290469,-4.07483 -3.741004,-3.668793 -5.026976,-6.338476 -4.297262,-8.921137 0.289044,-1.022982 0.461272,-2.500433 0.382731,-3.283208 -0.09849,-0.981608 0.559393,-1.82646 2.120185,-2.72275 3.664697,-2.10449 8.084077,-3.655749 8.084077,-2.837657 0,0.400981 -0.644025,0.894221 -1.431168,1.096094 -1.149661,0.29484 -1.345715,0.711804 -0.996751,2.119868 0.238933,0.964055 0.555374,2.508398 0.703231,3.431872 0.147845,0.923466 0.418714,2.283483 0.601943,3.02226 0.183216,0.738781 0.356693,1.721004 0.385507,2.182744 0.02884,0.461741 0.799196,0.839519 1.711952,0.839519 0.91275,0 2.57515,0.755563 3.69423,1.679044 2.98311,2.461645 5.50518,2.192914 9.45427,-1.007436 2.34628,-1.901438 3.95753,-2.686448 5.51392,-2.686448 1.88957,0 2.15857,-0.205596 1.91196,-1.461369 -0.15783,-0.803741 0.0404,-1.848305 0.4407,-2.32123 0.41273,-0.4877 0.48099,-1.235944 0.15772,-1.728788 -0.31349,-0.477932 -0.57115,-1.77563 -0.57259,-2.883786 -0.002,-1.577173 -0.33734,-2.06147 -1.5435,-2.229461 -0.84749,-0.118037 -1.54088,-0.639368 -1.54088,-1.15853 0,-1.404195 3.46501,-0.58404 9.93011,2.350386 9.39778,4.265562 16.95703,12.460312 20.30742,22.014643 2.2893,6.52837 2.20685,17.32057 -0.1835,24.02257 -4.34226,12.17472 -14.39086,21.14159 -27.45283,24.49755 -6.2184,1.59768 -11.50938,1.6764 -17.87479,0.26592 z m 16.30084,-0.94522 c 17.47503,-4.13835 29.31001,-17.63734 29.22185,-33.33053 -0.0489,-8.70018 -2.21169,-14.51163 -7.65236,-20.561693 -3.56525,-3.964546 -7.4129,-6.583481 -12.32422,-8.388517 -2.07162,-0.761382 -4.32422,-1.60071 -5.00579,-1.86516 -1.08555,-0.421226 -1.2129,-0.157765 -1.02724,2.124896 l 0.21194,2.605746 -2.89656,0.20584 c -2.13282,0.151574 -3.43787,0.736714 -4.94958,2.219228 -2.04723,2.007722 -4.12935,7.34044 -4.14857,10.62539 -0.0187,3.19806 -1.52471,4.78646 -6.49584,6.85128 l -4.793837,1.99117 -3.870066,-1.12637 c -6.978032,-2.03095 -12.47626,-0.16113 -16.64955,5.66209 -1.84942,2.58061 -2.079439,3.43555 -2.075318,7.71363 0.0039,4.06321 0.318286,5.36792 2.021755,8.3907 2.223071,3.94478 8.37223,9.89221 12.944907,12.52025 5.370838,3.08675 10.594269,4.47295 17.900789,4.75056 3.7666,0.1431 8.08105,-0.0317 9.58769,-0.38851 z m -15.43738,-2.27124 c -12.740058,-2.22918 -23.892524,-11.92276 -25.08589,-21.80434 -0.854146,-7.07271 4.604799,-13.12845 11.834653,-13.12845 4.993902,0 5.768876,0.94275 2.676459,3.25591 -1.34668,1.00733 -2.978823,2.37636 -3.626965,3.04227 -0.64815,0.6659 -1.838571,1.40936 -2.64539,1.65212 -0.806819,0.24276 -1.631813,1.0597 -1.833328,1.81542 -0.255104,0.95668 -0.09133,1.27053 0.539159,1.03325 0.678606,-0.25537 0.833561,0.27833 0.618335,2.1297 -0.223241,1.92028 0.09702,2.9192 1.438004,4.48532 1.268973,1.48199 1.726119,1.7145 1.728615,0.87915 0.0019,-0.62463 -0.304769,-1.32247 -0.681431,-1.55076 -1.149324,-0.69661 -0.766316,-1.57374 0.786103,-1.80024 1.642091,-0.23958 3.219797,-2.21863 2.405404,-3.01731 -0.289646,-0.28406 -0.801304,-0.0806 -1.136997,0.45206 -0.335701,0.53269 -0.805436,0.77722 -1.043854,0.5434 -0.238422,-0.23381 0.515259,-1.11304 1.674848,-1.9538 1.159591,-0.84076 2.108343,-2.07628 2.108343,-2.74559 0,-0.76918 0.503936,-1.21693 1.369669,-1.21693 0.753317,0 1.391333,-0.37777 1.417807,-0.83951 0.02648,-0.46174 0.312986,-0.23507 0.636695,0.50371 0.503293,1.14859 0.595541,1.17292 0.636709,0.16789 0.02648,-0.64642 0.389277,-1.17531 0.806233,-1.17531 0.416965,0 0.574581,0.46903 0.350263,1.0423 -0.233867,0.59768 -0.11906,0.86727 0.269145,0.63198 0.372348,-0.22568 0.676997,-0.84583 0.676997,-1.37811 0,-0.53228 0.308171,-0.96779 0.684834,-0.96779 0.87473,0 0.86273,0.43396 -0.05878,2.12255 -0.657481,1.20481 -0.578161,1.31113 0.684839,0.918 1.28948,-0.40135 1.42845,-0.17674 1.42845,2.30867 0,5.78213 -3.191315,9.67922 -8.574619,10.4709 -5.846138,0.85976 -11.285605,-3.6659 -11.285605,-9.38967 0,-3.49898 1.453877,-5.54855 5.048333,-7.11684 2.210169,-0.96432 2.483521,-1.24392 1.252391,-1.281 -5.212621,-0.15703 -9.054037,5.7023 -7.674414,11.70579 0.825468,3.5921 4.9682,7.40678 8.718561,8.02817 9.05484,1.50027 16.546783,-6.33253 14.594763,-15.25877 -0.58483,-2.67432 -0.55712,-3.53459 0.12792,-3.972 1.9773,-1.26252 3.47282,-0.2394 4.59445,3.14324 1.33259,4.01883 4.84692,9.33709 9.66217,14.62183 4.9941,5.48102 3.75068,7.25019 -3.3833,4.8139 -2.99612,-1.0232 -6.91714,-0.77931 -6.91714,0.43024 0,0.34004 1.09682,0.61825 2.43734,0.61825 1.45051,0 2.26598,0.27192 2.01409,0.67162 -0.23279,0.36939 -1.47323,0.67161 -2.75652,0.67161 -2.48407,0 -7.17359,1.8671 -7.17359,2.85612 0,0.72396 2.58969,-0.0166 4.4326,-1.26755 0.74298,-0.50432 1.82159,-0.9118 2.39693,-0.9055 0.57534,0.006 -0.4948,0.90783 -2.37809,2.00339 -1.8833,1.09556 -2.96192,1.98637 -2.39694,1.97959 0.56499,-0.007 1.7977,-0.44426 2.73935,-0.97218 0.94164,-0.5279 2.17435,-0.95686 2.73934,-0.95327 0.56498,0.004 -0.35954,0.7348 -2.05451,1.6249 -2.03074,1.0664 -2.61463,1.62056 -1.71208,1.62488 0.75331,0.004 2.14011,-0.42538 3.08175,-0.95327 0.94165,-0.52791 3.29636,-0.97054 5.23269,-0.98362 1.99568,-0.0135 4.81367,-0.59923 6.50593,-1.35229 1.64194,-0.73065 3.70758,-1.3351 4.59032,-1.34323 1.02129,-0.009 1.73526,-0.50325 1.96317,-1.35797 0.197,-0.73877 0.70746,-1.34786 1.13435,-1.35352 0.42689,-0.005 0.31391,-0.30324 -0.25108,-0.66132 -0.91311,-0.57871 -0.91311,-0.65246 0,-0.66385 0.56499,-0.007 0.0782,-0.58037 -1.08182,-1.27408 -2.27091,-1.35805 -2.98747,-2.75654 -4.81817,-9.40345 -1.38062,-5.01276 -4.93621,-9.21983 -8.35959,-9.89128 -1.18483,-0.2324 -1.98695,-0.68797 -1.78251,-1.01238 0.49585,-0.78679 2.20431,-0.74889 3.23034,0.0717 0.45492,0.3638 1.7732,1.40266 2.92948,2.30854 2.27798,1.78465 3.72099,4.61666 5.40338,10.60461 1.272,4.52729 4.27455,7.25965 8.19537,7.45781 1.34249,0.0679 2.44227,0.34025 2.44396,0.60532 0.005,0.70978 -6.75723,5.53671 -9.92704,7.08651 -2.37239,1.15993 -4.34023,1.68271 -11.64218,3.09286 -2.55705,0.4938 -4.78357,0.37525 -9.95871,-0.53026 z m 21.75199,-7.13541 c 0.2009,-0.75344 0.51829,-1.21981 0.70532,-1.0364 0.37049,0.36334 -0.28393,2.40625 -0.7708,2.40625 -0.1649,0 -0.13543,-0.61644 0.0655,-1.36985 z m 12.88301,-3.56342 c 0.26159,-2.33699 1.78588,-4.37874 3.19147,-4.27491 1.58458,0.11706 1.58449,0.11754 -0.64558,3.20991 -2.17451,3.01534 -2.79317,3.27415 -2.54589,1.065 z m -25.70355,-11.56091 c 0,-0.16288 0.30818,-0.29616 0.68484,-0.29616 0.37665,0 0.68483,0.32006 0.68483,0.71125 0,0.39119 -0.30818,0.52446 -0.68483,0.29617 -0.37666,-0.22829 -0.68484,-0.54836 -0.68484,-0.71126 z m 21.26918,-12.71805 c -1.23572,-3.03882 -3.96907,-6.25791 -6.33048,-7.45548 -1.96017,-0.99406 -2.30038,-0.98198 -4.75058,0.16861 -1.45157,0.68166 -2.64275,1.391 -2.64708,1.57633 -0.005,0.18533 1.33593,1.03608 2.97835,1.89055 3.73872,1.9451 7.52963,5.71016 9.26187,9.19873 0.73127,1.47272 1.21566,2.79045 1.07643,2.92832 -0.13922,0.13786 -1.70903,-1.00612 -3.48845,-2.5422 -1.77941,-1.53606 -5.11594,-3.67305 -7.41448,-4.74888 -2.96267,-1.38664 -4.20973,-2.35343 -4.28407,-3.32121 -0.0577,-0.75085 0.18484,-1.54075 0.53891,-1.75536 0.35408,-0.2146 0.45532,-1.12657 0.22499,-2.02656 -0.23034,-0.90001 -0.23846,-2.09724 -0.0181,-2.66051 0.32962,-0.8424 0.63976,-0.87775 1.74764,-0.19922 1.12001,0.68595 1.58408,0.6144 2.75488,-0.42469 0.77439,-0.68729 1.40798,-1.95833 1.40798,-2.82456 0,-0.8662 0.33266,-1.57493 0.73924,-1.57493 0.47528,0 0.56898,0.77941 0.26242,2.18275 -0.26226,1.20051 -0.23879,1.95941 0.0522,1.68644 0.29094,-0.27295 0.77976,-1.63297 1.08624,-3.02226 0.48935,-2.21814 0.51866,-2.11673 0.24048,0.8321 -0.22027,2.33498 -0.11274,3.05114 0.35294,2.35065 0.36834,-0.55409 0.6838,-2.06521 0.70102,-3.35806 0.026,-1.95106 0.15202,-2.14728 0.74136,-1.15429 0.49767,0.83852 0.47179,1.90435 -0.0866,3.56343 -0.75857,2.25412 -0.68459,2.47376 1.55035,4.60237 3.36969,3.20945 4.87318,6.71364 5.06013,11.79368 l 0.16066,4.36548 -0.5501,-4.02968 c -0.30254,-2.21632 -0.91824,-4.93503 -1.36821,-6.04155 z m -17.81362,-0.3963 c 0.42043,-0.77041 0.93162,-1.23678 1.13596,-1.03639 0.56448,0.55359 -0.33972,2.43714 -1.16995,2.43714 -0.50648,0 -0.49606,-0.42947 0.034,-1.40075 z m 26.10077,-11.96791 c -3.48857,-5.279838 -7.92327,-8.456641 -15.44403,-11.06332 -2.4661,-0.854743 -0.49773,-1.220161 2.10664,-0.391075 3.75218,1.194471 9.2131,4.894862 11.57719,7.844855 2.26559,2.82708 4.39111,5.99498 4.39111,6.54454 0,0.82139 -0.56658,0.1893 -2.63091,-2.935 z m -36.52197,-7.219665 c -0.68881,-0.611338 -1.25238,-1.978832 -1.25238,-3.038885 0,-1.43788 -0.43481,-2.089488 -1.71209,-2.565737 -1.78291,-0.664778 -1.93064,-1.034392 -1.74484,-4.365499 0.12105,-2.170056 2.18874,-4.365486 4.11149,-4.365486 0.65322,0 1.7456,0.604619 2.42754,1.343595 l 1.23986,1.343582 0.95961,-1.343582 c 1.08944,-1.525367 4.15544,-1.791645 5.80415,-0.504076 1.40334,1.095953 2.05949,5.461542 1.01749,6.769587 -0.44189,0.554707 -1.41979,1.115225 -2.17311,1.245588 -1.00972,0.174736 -1.31728,0.678045 -1.17032,1.915243 0.43344,3.649149 -4.67796,6.076845 -7.5074,3.56567 z m 8.31042,-8.597462 c 1.01667,-1.20136 0.37219,-2.380068 -1.30134,-2.380068 -1.50927,0 -3.07032,1.686839 -2.4589,2.65703 0.64141,1.017792 2.79901,0.858868 3.76024,-0.276962 z m -6.5434,0.405332 c 0.1985,-0.314973 -0.0379,-1.107574 -0.52539,-1.761346 -1.00465,-1.347422 -3.86368,-0.882434 -3.86368,0.628391 0,1.433937 3.61184,2.366264 4.38907,1.132955 z m 2.11895,-2.1171 c 0.81564,-1.294258 3.33268,-1.898647 4.79175,-1.150596 1.22518,0.628123 1.27052,0.58432 0.42978,-0.415171 -1.2515,-1.487813 -3.02713,-1.412259 -4.50735,0.191789 -1.1967,1.296803 -1.2261,1.296118 -3.11495,-0.07341 -1.49569,-1.084465 -2.18098,-1.226353 -3.17826,-0.65798 -1.12083,0.638782 -1.03447,0.727024 0.72917,0.745018 1.10032,0.01123 2.53356,0.493459 3.18498,1.071594 0.8413,0.746668 1.32358,0.830303 1.66488,0.28875 z m -22.944063,2.729396 c 0,-0.347582 0.308172,-0.818745 0.684843,-1.047052 0.376655,-0.228294 0.684834,0.0561 0.684834,0.631981 0,0.575877 -0.308179,1.047052 -0.684834,1.047052 -0.376671,0 -0.684843,-0.284395 -0.684843,-0.631981 z m 11.913275,-3.887418 c 0.696149,-0.682701 1.270536,0.345128 0.699367,1.251474 -0.431468,0.684653 -0.592777,0.685185 -0.824743,0.0029 -0.158606,-0.466634 -0.10218,-1.031017 0.125376,-1.25418 z m 20.273978,-0.181892 c 0,-0.369395 0.30817,-0.671622 0.68483,-0.671622 0.37666,0 0.68484,0.302227 0.68484,0.671622 0,0.369382 -0.30818,0.671614 -0.68484,0.671614 -0.37666,0 -0.68483,-0.302232 -0.68483,-0.671614 z m -9.5877,-8.81026 c 0,-0.369391 0.30818,-0.484834 0.68484,-0.256535 0.37666,0.22829 0.68483,0.71731 0.68483,1.086693 0,0.369387 -0.30817,0.484833 -0.68483,0.256538 -0.37666,-0.228298 -0.68484,-0.71731 -0.68484,-1.086696 z m -2.14185,0.24717 c -0.85185,-1.065218 -0.82763,-1.08897 0.25856,-0.253573 0.65916,0.506976 1.19846,1.035873 1.19846,1.17534 0,0.552759 -0.56238,0.196977 -1.45702,-0.921767 z"
       style="fill:#000000"
       inkscape:connector-curvature="0" />
  </g>
</svg>
